<?xml version="1.0" encoding="UTF-8" standalone="no"?>
<svg width="40" height="24" viewBox="0 0 40 24" xmlns="http://www.w3.org/2000/svg">
  <style>
    .logo-stroke {
      stroke: #1a1a1a;
      stroke-width: 1.5;
      stroke-linecap: round;
      stroke-linejoin: round;
      fill: none;
      filter: drop-shadow(0px 1px 2px rgba(0, 0, 0, 0.2));
    }
    @media (prefers-color-scheme: dark) {
      .logo-stroke {
        stroke: #ffffff;
        filter: drop-shadow(0px 1px 2px rgba(255, 255, 255, 0.1));
      }
    }
  </style>
  <path
    class="logo-stroke"
    d="M 2.00,-4.00 Q 2.00,-4.00 4.21,-3.00 6.43,-1.99 8.84,-0.27 11.26,1.45 13.65,3.13 16.04,4.82 18.91,7.81 21.78,10.80 23.92,13.48 26.06,16.17 27.67,18.85 29.29,21.53 30.16,24.78 31.03,28.03 31.30,31.50 31.57,34.97 29.74,39.37 27.91,43.78 24.08,48.29 20.26,52.79 15.78,56.57 11.31,60.34 7.12,63.02 2.94,65.70 -1.42,67.67 -5.79,69.65 -10.04,70.58 -14.29,71.51 -17.73,72.00 -21.17,72.50 -24.59,72.23 -28.01,71.97 -30.92,71.35 -33.83,70.73 -36.99,69.57 -40.14,68.41 -40.51,68.23 -40.87,68.05 -41.38,67.78 -41.89,67.51 -42.31,67.13 -42.74,66.75 -43.06,66.28 -43.39,65.81 -43.59,65.27 -43.79,64.74 -43.86,64.17 -43.93,63.60 -43.86,63.03 -43.78,62.46 -43.58,61.93 -43.38,61.39 -43.05,60.92 -42.72,60.45 -42.29,60.08 -41.86,59.70 -41.36,59.43 -40.85,59.17 -40.29,59.03 -39.74,58.90 -39.17,58.90 -38.59,58.90 -38.04,59.04 -37.48,59.18 -32.63,59.04 -27.78,58.91 -19.12,59.64 -10.46,60.38 5.00,63.49 20.47,66.61 38.68,71.51 56.89,76.41 78.50,84.24 100.11,92.08 114.71,98.14 129.31,104.21 141.59,111.21 153.87,118.20 161.48,122.79 169.09,127.38 173.13,129.89 177.17,132.39 179.20,133.18 181.24,133.98 182.88,134.74 184.53,135.50 184.83,135.83 185.14,136.16 185.35,136.56 185.57,136.95 185.69,137.38 185.81,137.82 185.81,138.27 185.82,138.72 185.73,139.15 185.63,139.59 185.43,140.00 185.23,140.40 184.94,140.74 184.64,141.08 184.28,141.35 183.92,141.61 183.50,141.78 183.08,141.94 182.64,142.01 182.19,142.07 181.74,142.03 181.30,141.98 180.87,141.83 180.45,141.68 180.08,141.43 179.70,141.19 178.85,138.93 178.01,136.68 175.75,132.94 173.50,129.21 172.22,127.05 170.94,124.90 169.40,122.11 167.85,119.33 165.49,114.48 163.13,109.62 161.50,106.51 159.86,103.40 157.23,98.87 154.61,94.34 151.30,88.20 147.99,82.07 144.81,77.13 141.63,72.20 138.11,66.79 134.59,61.39 130.16,55.05 125.73,48.71 120.71,43.15 115.68,37.59 109.02,31.75 102.36,25.92 91.74,18.32 81.13,10.72 66.10,1.56 51.07,-7.60 25.87,-18.48 0.66,-29.36 -37.89,-42.64 -76.46,-55.93 -113.40,-66.72 -150.34,-77.51 -175.23,-83.99 -200.12,-90.47 -231.23,-97.00 -262.33,-103.54 -280.15,-106.86 -297.97,-110.18 -306.12,-111.86 -314.27,-113.55 -316.57,-113.51 -318.87,-113.46 -319.36,-113.14 -319.86,-112.83 -320.25,-112.90 -320.63,-112.97 -320.99,-113.14 -321.35,-113.30 -321.66,-113.54 -321.97,-113.79 -322.21,-114.10 -322.45,-114.41 -322.61,-114.77 -322.77,-115.13 -322.84,-115.52 -322.91,-115.91 -322.88,-116.30 -322.86,-116.70 -322.74,-117.07 -322.62,-117.45 -322.41,-117.78 -322.21,-118.12 -321.93,-118.40 -321.65,-118.67 -321.31,-118.88 -320.97,-119.08 -320.59,-119.19 -320.22,-119.31 -319.82,-119.33 -319.43,-119.35 -314.78,-117.43 -310.14,-115.51 -305.04,-112.92 -299.95,-110.33 -296.74,-109.10 -293.52,-107.86 -287.62,-105.58 -281.71,-103.30 -275.59,-101.80 -269.46,-100.29 -263.26,-98.79 -257.06,-97.29 -253.32,-96.46 -249.58,-95.62 -244.43,-94.09 -239.27,-92.55 -234.97,-91.35 -230.68,-90.16 -227.14,-89.21 -223.61,-88.26 -216.94,-85.85 -210.27,-83.43 -202.40,-81.07 -194.54,-78.70 -184.93,-75.78 -175.33,-72.85 -165.87,-70.26 -156.42,-67.66 -133.25,-62.78 -110.07,-57.89 -89.96,-54.46 -69.84,-51.03 -52.10,-48.48 -34.37,-45.94 -21.40,-44.04 -8.42,-42.14 3.02,-40.52 14.48,-38.90 23.94,-37.67 33.40,-36.44 40.96,-35.38 48.52,-34.31 54.35,-33.86 60.18,-33.42 64.71,-32.67 69.23,-31.92 73.25,-31.38 77.26,-30.84 81.23,-30.10 85.20,-29.35 90.25,-28.73 95.30,-28.12 100.78,-27.30 106.26,-26.47 111.32,-25.57 116.37,-24.67 120.30,-24.35 124.22,-24.03 127.91,-23.47 131.60,-22.91 133.48,-20.45 135.36,-18.00 137.52,-15.37 139.67,-12.75 141.29,-10.00 142.91,-7.26 144.17,-5.41 145.43,-3.55 146.81,-1.38 148.19,0.79 149.54,2.66 150.88,4.53 153.86,9.54 156.84,14.55 158.40,17.99 159.96,21.42 161.75,25.61 163.54,29.80 164.98,32.60 166.42,35.39 168.17,38.02 169.91,40.65 170.10,41.19 170.29,41.72 170.35,42.28 170.40,42.85 170.32,43.41 170.24,43.97 170.03,44.50 169.82,45.03 169.49,45.49 169.15,45.95 168.72,46.32 168.29,46.68 167.78,46.94 167.27,47.19 166.72,47.31 166.17,47.44 165.60,47.43 165.03,47.42 164.48,47.27 163.93,47.12 163.44,46.85 162.94,46.57 162.52,46.19 162.11,45.80 161.79,45.33 161.48,44.85 159.93,42.04 158.38,39.23 157.10,36.08 155.82,32.93 154.54,29.29 153.25,25.66 152.30,23.72 151.36,21.78 150.18,19.40 149.01,17.02 148.09,15.07 147.18,13.13 146.25,10.99 145.32,8.85 144.21,6.81 143.11,4.77 142.15,1.74 141.19,-1.29 140.18,-4.13 139.17,-6.97 138.39,-10.47 137.60,-13.96 137.18,-16.62 136.76,-19.29 136.31,-21.58 135.87,-23.86 135.65,-26.76 135.43,-29.65 135.29,-31.94 135.16,-34.22 135.28,-38.11 135.41,-42.00 136.29,-44.06 137.16,-46.12 139.36,-48.65 141.56,-51.19 144.16,-52.81 146.77,-54.44 151.82,-53.68 156.87,-52.91 158.84,-51.45 160.81,-49.98 163.71,-46.72 166.60,-43.46 167.63,-41.15 168.65,-38.83 169.15,-36.34 169.64,-33.85 169.75,-31.10 169.87,-28.35 169.88,-25.88 169.90,-23.41 169.91,-21.29 169.93,-19.16 169.97,-15.51 170.02,-11.86 172.73,-14.61 175.45,-17.36 179.41,-18.12 183.37,-18.89 186.37,-19.53 189.37,-20.17 191.66,-20.75 193.96,-21.33 196.30,-21.86 198.64,-22.40 200.90,-22.19 203.17,-21.98 202.52,-22.13 201.88,-22.28 202.59,-22.21 203.29,-22.15 203.97,-21.92 204.64,-21.70 205.24,-21.31 205.83,-20.93 206.32,-20.42 206.81,-19.90 207.16,-19.28 207.52,-18.67 207.71,-17.98 207.90,-17.30 207.93,-16.59 207.95,-15.88 207.80,-15.19 207.66,-14.49 207.35,-13.85 207.04,-13.21 206.59,-12.66 206.14,-12.12 205.57,-11.69 205.00,-11.27 204.34,-11.00 203.69,-10.72 202.99,-10.61 202.28,-10.50 198.96,-7.88 195.63,-5.25 193.93,-3.93 192.23,-2.61 190.60,0.12 188.97,2.85 188.25,4.98 187.54,7.10 187.15,10.74 186.76,14.39 187.82,17.09 188.87,19.80 191.53,19.06 194.20,18.31 196.52,17.46 198.84,16.62 204.15,16.33 209.46,16.04 212.16,15.78 214.87,15.51 217.08,14.86 219.29,14.21 222.04,13.52 224.79,12.83 227.64,11.81 230.49,10.78 232.96,9.79 235.43,8.80 238.55,7.45 241.66,6.11 244.24,5.50 246.82,4.88 244.37,2.53 241.92,0.17 241.04,-2.95 240.16,-6.07 239.50,-8.47 238.85,-10.88 237.76,-14.54 236.68,-18.21 235.58,-23.00 234.48,-27.78 233.52,-31.77 232.56,-35.76 232.42,-38.22 232.29,-40.68 232.17,-44.39 232.05,-48.09 232.72,-51.37 233.40,-54.65 234.00,-57.57 234.61,-60.48 235.48,-63.25 236.35,-66.03 237.69,-68.60 239.03,-71.18 242.24,-75.47 245.44,-79.76 247.89,-81.45 250.33,-83.15 252.35,-84.29 254.36,-85.43 256.95,-86.17 259.53,-86.92 262.09,-87.18 264.66,-87.44 267.18,-87.27 269.70,-87.10 272.47,-86.58 275.24,-86.06 277.15,-84.69 279.07,-83.32 281.02,-81.38 282.97,-79.45 284.94,-77.11 286.91,-74.78 288.77,-72.41 290.63,-70.04 292.34,-67.50 294.05,-64.97 295.31,-63.17 296.58,-61.37 298.55,-57.78 300.52,-54.20 302.13,-51.11 303.73,-48.03 304.98,-45.67 306.22,-43.30 307.53,-41.27 308.85,-39.23 306.17,-39.18 303.48,-39.14 307.37,-37.58 311.25,-36.02 311.43,-35.34 311.61,-34.66 311.63,-33.96 311.64,-33.25 311.49,-32.57 311.33,-31.88 311.02,-31.25 310.71,-30.62 310.25,-30.09 309.80,-29.55 309.23,-29.14 308.66,-28.73 308.01,-28.47 307.36,-28.20 306.66,-28.10 305.97,-28.00 305.27,-28.07 304.57,-28.14 303.91,-28.38 303.24,-28.61 302.66,-29.00 302.07,-29.39 301.59,-29.90 301.12,-30.42 300.78,-31.03 300.44,-31.65 298.86,-34.40 297.28,-37.14 294.09,-43.33 290.90,-49.53 286.93,-56.90 282.96,-64.27 278.03,-75.48 273.10,-86.69 269.97,-95.89 266.85,-105.08 264.99,-115.14 263.14,-125.20 262.67,-133.92 262.20,-142.64 263.70,-149.36 265.20,-156.09 267.00,-160.14 268.79,-164.19 270.65,-166.81 272.51,-169.42 274.23,-171.02 275.95,-172.61 276.74,-173.76 277.53,-174.91 278.03,-175.33 278.53,-175.74 279.13,-175.98 279.74,-176.21 280.38,-176.24 281.03,-176.27 281.66,-176.09 282.28,-175.91 282.81,-175.54 283.35,-175.17 283.73,-174.65 284.12,-174.13 284.32,-173.51 284.52,-172.90 284.52,-172.25 284.51,-171.60 284.30,-170.99 284.08,-170.38 283.69,-169.86 283.29,-169.35 282.75,-168.99 282.21,-168.63 281.58,-168.47 280.95,-168.30 280.31,-168.34 279.66,-168.38 279.06,-168.63 278.46,-168.87 277.97,-169.30 277.48,-169.72 277.15,-170.28 276.82,-170.84 276.69,-171.48 276.55,-172.11 276.63,-172.76 276.71,-173.40 276.99,-173.99 277.26,-174.57 277.71,-175.04 278.17,-175.50 278.74,-175.80 279.32,-176.10 279.96,-176.20 280.60,-176.30 281.24,-176.19 281.88,-176.08 282.45,-175.77 283.02,-175.46 283.46,-174.98 283.90,-174.51 284.17,-173.91 284.43,-173.32 284.50,-172.68 284.56,-172.03 284.42,-171.40 284.27,-170.77 283.93,-170.21 283.59,-169.66 283.59,-169.66 283.59,-169.66 280.62,-167.36 277.65,-165.06 275.92,-163.39 274.19,-161.72 272.64,-158.24 271.09,-154.76 269.80,-148.87 268.51,-142.97 269.13,-134.73 269.74,-126.48 271.72,-117.01 273.69,-107.53 277.03,-98.79 280.36,-90.05 285.54,-79.44 290.71,-68.83 295.23,-61.80 299.75,-54.76 303.80,-48.71 307.84,-42.66 309.54,-39.34 311.25,-36.02 311.43,-35.34 311.61,-34.66 311.63,-33.96 311.64,-33.25 311.49,-32.57 311.33,-31.88 311.02,-31.25 310.71,-30.63 310.25,-30.09 309.80,-29.55 309.23,-29.14 308.66,-28.73 308.01,-28.47 307.36,-28.20 306.66,-28.10 305.97,-28.00 305.27,-28.07 304.57,-28.14 303.91,-28.38 303.24,-28.61 302.66,-29.00 302.07,-29.39 301.59,-29.90 301.12,-30.42 300.78,-31.03 300.44,-31.65 304.13,-30.01 307.82,-28.37 303.66,-30.73 299.49,-33.09 298.14,-35.79 296.78,-38.48 295.79,-40.51 294.79,-42.53 292.40,-45.94 290.01,-49.35 288.65,-52.18 287.28,-55.02 286.10,-56.81 284.91,-58.59 283.40,-60.67 281.89,-62.75 280.01,-64.87 278.12,-66.99 276.37,-68.85 274.61,-70.72 272.73,-72.93 270.85,-75.13 268.24,-75.48 265.63,-75.82 262.72,-75.57 259.81,-75.33 256.86,-73.80 253.91,-72.27 251.49,-69.00 249.07,-65.74 247.51,-62.17 245.96,-58.60 245.18,-53.39 244.40,-48.19 244.43,-44.77 244.46,-41.36 244.73,-38.01 245.00,-34.66 246.02,-30.42 247.04,-26.19 247.89,-23.86 248.74,-21.53 249.77,-17.96 250.81,-14.38 251.49,-12.22 252.18,-10.06 253.17,-7.55 254.15,-5.04 255.10,-3.01 256.05,-0.97 257.29,1.79 258.52,4.56 258.78,6.97 259.03,9.38 258.36,11.47 257.68,13.57 254.93,15.29 252.18,17.02 249.90,17.65 247.62,18.28 244.31,19.19 241.00,20.10 238.67,21.12 236.34,22.13 234.29,22.81 232.25,23.50 228.93,24.21 225.62,24.92 223.28,25.43 220.94,25.93 218.52,26.35 216.11,26.76 213.58,27.08 211.04,27.39 205.41,28.64 199.78,29.88 196.22,30.92 192.65,31.96 189.67,32.23 186.69,32.49 184.30,31.56 181.91,30.62 180.47,28.67 179.02,26.71 177.65,24.50 176.27,22.29 175.76,17.88 175.25,13.46 175.47,11.16 175.69,8.87 176.19,6.21 176.68,3.54 178.79,-1.39 180.90,-6.33 182.86,-9.00 184.81,-11.67 187.23,-13.63 189.66,-15.60 193.50,-17.86 197.34,-20.12 199.61,-21.20 201.88,-22.28 202.59,-22.21 203.29,-22.15 203.97,-21.93 204.64,-21.70 205.24,-21.31 205.83,-20.93 206.32,-20.42 206.81,-19.90 207.16,-19.28 207.51,-18.67 207.71,-17.98 207.90,-17.30 207.93,-16.59 207.95,-15.88 207.80,-15.19 207.66,-14.49 207.35,-13.85 207.04,-13.21 206.59,-12.66 206.14,-12.12 205.57,-11.69 205.00,-11.27 204.34,-11.00 203.69,-10.72 202.99,-10.61 202.29,-10.50 201.63,-10.82 200.97,-11.14 198.73,-11.02 196.48,-10.89 194.14,-10.36 191.80,-9.82 188.98,-9.09 186.16,-8.36 182.79,-7.18 179.42,-6.01 176.16,-4.74 172.90,-3.47 169.48,-2.93 166.07,-2.39 163.72,-3.14 161.36,-3.88 159.93,-5.91 158.50,-7.93 158.07,-11.53 157.64,-15.12 157.61,-19.12 157.57,-23.13 157.33,-27.45 157.10,-31.77 156.58,-34.06 156.07,-36.34 154.56,-38.19 153.04,-40.03 150.67,-40.97 148.31,-41.91 147.01,-39.94 145.71,-37.97 145.67,-34.15 145.64,-30.32 145.76,-27.94 145.89,-25.57 146.26,-23.08 146.63,-20.59 146.85,-18.40 147.07,-16.21 147.80,-13.37 148.52,-10.53 149.79,-7.38 151.06,-4.24 151.65,-2.09 152.24,0.04 153.50,2.53 154.75,5.02 156.19,8.97 157.63,12.92 158.82,15.51 160.00,18.10 160.79,20.21 161.57,22.33 163.08,25.70 164.59,29.07 166.08,32.19 167.57,35.31 168.74,37.98 169.91,40.65 170.10,41.18 170.29,41.72 170.35,42.28 170.40,42.85 170.32,43.41 170.24,43.97 170.03,44.50 169.82,45.03 169.49,45.49 169.15,45.95 168.72,46.32 168.29,46.68 167.78,46.94 167.27,47.19 166.72,47.31 166.17,47.44 165.60,47.43 165.03,47.42 164.48,47.27 163.93,47.12 163.44,46.85 162.94,46.57 162.52,46.19 162.11,45.80 161.79,45.33 161.48,44.86 160.21,41.99 158.94,39.12 157.57,36.28 156.21,33.45 153.94,29.48 151.67,25.50 150.05,22.48 148.43,19.45 145.49,14.84 142.55,10.24 141.14,8.09 139.74,5.94 138.47,3.76 137.19,1.57 136.03,-0.45 134.86,-2.48 133.32,-5.06 131.78,-7.64 129.93,-10.74 128.08,-13.84 125.89,-16.17 123.71,-18.50 119.58,-18.92 115.44,-19.35 110.46,-20.21 105.47,-21.07 100.06,-21.85 94.65,-22.62 89.37,-23.22 84.08,-23.82 80.28,-24.65 76.49,-25.48 72.43,-26.10 68.37,-26.73 64.07,-27.44 59.78,-28.16 53.78,-28.62 47.79,-29.08 40.26,-30.14 32.72,-31.20 23.23,-32.43 13.74,-33.65 2.27,-35.26 -9.19,-36.88 -22.16,-38.76 -35.12,-40.65 -52.93,-43.18 -70.75,-45.72 -90.97,-49.15 -111.19,-52.58 -134.53,-57.47 -157.86,-62.36 -167.40,-64.93 -176.94,-67.50 -186.55,-70.35 -196.15,-73.21 -204.20,-75.54 -212.24,-77.87 -218.80,-80.12 -225.37,-82.37 -228.76,-83.50 -232.16,-84.62 -236.53,-85.74 -240.90,-86.87 -245.95,-88.25 -251.00,-89.63 -254.70,-90.55 -258.41,-91.48 -264.64,-92.85 -270.86,-94.22 -277.42,-95.66 -283.97,-97.10 -290.06,-99.19 -296.16,-101.27 -299.54,-102.68 -302.91,-104.08 -308.22,-106.43 -313.52,-108.78 -316.69,-110.80 -319.86,-112.83 -320.25,-112.90 -320.63,-112.97 -320.99,-113.14 -321.35,-113.30 -321.66,-113.54 -321.97,-113.79 -322.21,-114.10 -322.45,-114.41 -322.61,-114.77 -322.77,-115.13 -322.84,-115.52 -322.91,-115.91 -322.88,-116.30 -322.86,-116.70 -322.74,-117.07 -322.62,-117.45 -322.41,-117.78 -322.21,-118.12 -321.93,-118.40 -321.65,-118.67 -321.31,-118.88 -320.97,-119.08 -320.59,-119.19 -320.22,-119.31 -319.82,-119.33 -319.43,-119.35 -319.30,-119.43 -319.18,-119.50 -316.19,-119.11 -313.21,-118.72 -305.10,-117.04 -297.00,-115.36 -279.12,-112.04 -261.25,-108.71 -230.02,-102.15 -198.79,-95.59 -173.82,-89.10 -148.85,-82.61 -111.79,-71.79 -74.72,-60.98 -35.96,-47.63 2.79,-34.28 28.33,-23.26 53.88,-12.23 69.09,-2.97 84.30,6.27 95.16,14.00 106.01,21.73 112.94,27.75 119.87,33.78 125.17,39.56 130.47,45.34 135.04,51.69 139.61,58.04 143.25,63.36 146.89,68.69 150.37,73.73 153.85,78.76 157.31,84.62 160.76,90.48 163.85,95.07 166.94,99.66 168.57,102.72 170.19,105.78 172.96,110.35 175.73,114.92 177.34,117.75 178.94,120.58 179.98,122.72 181.01,124.86 182.53,127.65 184.04,130.43 184.28,132.97 184.53,135.50 184.83,135.83 185.14,136.16 185.35,136.56 185.57,136.95 185.69,137.38 185.81,137.82 185.81,138.27 185.82,138.72 185.73,139.15 185.63,139.59 185.43,139.99 185.23,140.40 184.94,140.74 184.64,141.08 184.28,141.35 183.92,141.61 183.50,141.78 183.08,141.94 182.64,142.01 182.19,142.07 181.74,142.03 181.30,141.98 180.87,141.83 180.45,141.68 180.08,141.43 179.70,141.19 178.94,140.45 178.17,139.71 176.23,138.40 174.29,137.09 170.25,134.64 166.21,132.20 158.63,127.70 151.04,123.20 139.04,116.45 127.05,109.70 112.54,103.80 98.03,97.90 76.62,90.32 55.22,82.73 37.19,78.11 19.15,73.49 4.10,70.76 -10.93,68.02 -19.30,67.73 -27.67,67.44 -32.07,67.76 -36.47,68.08 -38.67,68.06 -40.87,68.05 -41.38,67.78 -41.89,67.51 -42.31,67.13 -42.74,66.75 -43.06,66.28 -43.39,65.81 -43.59,65.27 -43.79,64.74 -43.86,64.17 -43.93,63.60 -43.86,63.03 -43.78,62.46 -43.58,61.93 -43.38,61.40 -43.05,60.93 -42.72,60.45 -42.29,60.08 -41.86,59.70 -41.36,59.43 -40.85,59.17 -40.29,59.03 -39.74,58.90 -39.17,58.90 -38.59,58.90 -38.04,59.04 -37.48,59.18 -37.06,59.76 -36.64,60.34 -34.22,61.75 -31.80,63.16 -29.43,63.96 -27.07,64.76 -24.45,65.28 -21.83,65.80 -18.70,65.60 -15.57,65.39 -12.00,64.68 -8.43,63.96 -4.60,62.07 -0.76,60.17 2.89,57.57 6.55,54.97 10.34,51.40 14.12,47.84 17.00,44.00 19.88,40.16 21.09,37.67 22.29,35.18 21.78,30.57 21.26,25.96 20.13,23.83 19.01,21.71 17.25,19.44 15.49,17.18 13.01,14.90 10.53,12.63 6.38,9.48 2.23,6.32 0.11,5.16 -2.00,4.00 -2.45,3.70 -2.90,3.41 -3.27,3.01 -3.63,2.61 -3.89,2.14 -4.15,1.67 -4.29,1.14 -4.43,0.62 -4.44,0.08 -4.45,-0.45 -4.33,-0.97 -4.21,-1.50 -3.97,-1.98 -3.73,-2.47 -3.38,-2.88 -3.03,-3.29 -2.59,-3.61 -2.15,-3.92 -1.65,-4.12 -1.15,-4.32 -0.62,-4.40 -0.08,-4.47 0.44,-4.42 0.98,-4.37 1.49,-4.18 2.00,-4.00 2.00,-4.00 L 2.00,-4.00 Z"
  />
</svg>
